<?xml version="1.0" encoding="UTF-8"?>
<!--Generator: Apple Native CoreSVG 326-->
<!DOCTYPE svg
PUBLIC "-//W3C//DTD SVG 1.1//EN"
       "http://www.w3.org/Graphics/SVG/1.1/DTD/svg11.dtd">
<svg version="1.1" xmlns="http://www.w3.org/2000/svg" xmlns:xlink="http://www.w3.org/1999/xlink" viewBox="0 0 70.8496 54.5166">
 <g>
  <rect height="54.5166" opacity="0" width="70.8496" x="0" y="0"/>
  <path d="M18.7012 54.4922L51.8311 54.4922C64.3555 54.4922 70.5078 48.3887 70.5078 35.9375L70.5078 20.5811L51.0742 20.5811C50.5859 21.9482 49.3164 22.8271 47.7051 22.8271L22.8027 22.8271C21.2402 22.8271 19.9463 21.9482 19.458 20.5811L0 20.5811L0 35.9375C0 48.3887 6.15234 54.4922 18.7012 54.4922ZM35.2539 34.375C33.7402 34.4238 32.4707 33.1055 32.4707 31.6406C32.4707 30.1025 33.7402 28.8574 35.2539 28.8574C36.792 28.8574 38.0371 30.1025 38.0371 31.6406C38.0371 33.0811 36.792 34.3262 35.2539 34.375ZM0 17.9932L19.4092 17.9932C19.8975 16.6016 21.1914 15.7227 22.7539 15.7227L47.6807 15.7227C49.2676 15.7227 50.5615 16.6016 51.0254 17.9932L70.4346 17.9932L70.4346 17.041C70.4346 5.63965 63.8184 0 51.7578 0L18.7012 0C6.61621 0 0 5.63965 0 17.041Z" fill="white" fill-opacity="0.85"/>
 </g>
</svg>
