<?xml version="1.0" encoding="UTF-8"?>
<!--Generator: Apple Native CoreSVG 326-->
<!DOCTYPE svg
PUBLIC "-//W3C//DTD SVG 1.1//EN"
       "http://www.w3.org/Graphics/SVG/1.1/DTD/svg11.dtd">
<svg version="1.1" xmlns="http://www.w3.org/2000/svg" xmlns:xlink="http://www.w3.org/1999/xlink" viewBox="0 0 46.1914 60.7691">
 <g>
  <rect height="60.7691" opacity="0" width="46.1914" x="0" y="0"/>
  <path d="M31.6162 55.0306C31.6162 56.7884 30.4688 57.7405 28.6377 57.7405L26.1475 57.7405C24.3164 57.7405 23.1445 56.7884 23.1445 55.0306L23.1445 35.8732C26.7384 35.5981 29.3949 34.9923 31.6162 34.1586Z" fill="white" fill-opacity="0.85"/>
  <path d="M42.9199 15.3089C42.9199 22.1448 38.8184 27.0276 33.5205 29.9573C31.2881 31.1996 28.8432 32.1365 24.9769 32.6098C25.5869 31.1639 25.9277 29.4944 25.9277 27.6136C25.9277 21.3541 20.8179 15.0946 13.7683 13.9911C14.3537 12.8362 14.9729 11.8778 15.4053 11.3294C19.2139 5.66533 25.2441 2.95537 30.6641 3.02861C37.5244 3.10185 42.9199 7.64287 42.9199 15.3089ZM34.6436 10.011L30.1758 13.7708C29.5654 14.2835 29.4678 15.1624 29.9805 15.7483C30.4688 16.3831 31.3721 16.4319 31.958 15.9437L36.4746 12.1839C37.085 11.6712 37.1094 10.7923 36.5967 10.2063C36.1328 9.57158 35.2539 9.49834 34.6436 10.011Z" fill="white" fill-opacity="0.85"/>
  <path d="M14.0869 36.4759C18.9453 36.4759 23.0225 33.4485 23.0225 27.6136C23.0225 22.2425 18.042 16.7249 11.5234 16.7249C6.12793 16.7249 2.90527 20.9241 2.90527 25.4651C2.90527 32.0081 8.47168 36.4759 14.0869 36.4759ZM12.5977 31.9593C11.7188 32.7161 10.2295 31.9349 8.42285 29.7376C6.66504 27.5892 6.17676 26.0511 7.03125 25.2942C7.93457 24.5374 9.375 25.2942 11.2061 27.4915C12.9639 29.7132 13.4521 31.2269 12.5977 31.9593Z" fill="white" fill-opacity="0.85"/>
 </g>
</svg>
