<?xml version="1.0" encoding="UTF-8"?>
<!--Generator: Apple Native CoreSVG 326-->
<!DOCTYPE svg
PUBLIC "-//W3C//DTD SVG 1.1//EN"
       "http://www.w3.org/Graphics/SVG/1.1/DTD/svg11.dtd">
<svg version="1.1" xmlns="http://www.w3.org/2000/svg" xmlns:xlink="http://www.w3.org/1999/xlink" viewBox="0 0 46.4355 60.7691">
 <g>
  <rect height="60.7691" opacity="0" width="46.4355" x="0" y="0"/>
  <path d="M22.8027 35.8721L22.8027 55.0306C22.8027 56.7884 21.6553 57.7405 19.7998 57.7405L17.334 57.7405C15.5029 57.7405 14.3555 56.7884 14.3555 55.0306L14.3555 34.1599C16.5695 34.9918 19.2162 35.5966 22.8027 35.8721Z" fill="white" fill-opacity="0.85"/>
  <path d="M30.5664 11.3294C30.9988 11.8778 31.6181 12.8363 32.2015 13.9914C25.1529 15.0956 20.0439 21.3546 20.0439 27.6136C20.0439 29.4944 20.3848 31.1639 20.9948 32.6098C17.1285 32.1365 14.6836 31.1996 12.4512 29.9573C7.12891 27.0276 3.02734 22.1448 3.02734 15.3089C3.02734 7.64287 8.42285 3.10185 15.3076 3.02861C20.7275 2.95537 26.7334 5.66533 30.5664 11.3294ZM9.35059 10.2063C8.83789 10.7923 8.8623 11.6712 9.49707 12.1839L14.0137 15.9437C14.5752 16.4319 15.5029 16.3831 15.9912 15.7483C16.4795 15.1624 16.4062 14.2835 15.7959 13.7708L11.3281 10.011C10.7178 9.49834 9.83887 9.57158 9.35059 10.2063Z" fill="white" fill-opacity="0.85"/>
  <path d="M31.8848 36.4759C37.4756 36.4759 43.042 32.0081 43.042 25.4651C43.042 20.9241 39.8438 16.7249 34.4482 16.7249C27.9297 16.7249 22.9492 22.2425 22.9492 27.6136C22.9492 33.4485 27.002 36.4759 31.8848 36.4759ZM33.3496 31.9593C32.5195 31.2269 33.0078 29.7132 34.7656 27.4915C36.5723 25.2942 38.0371 24.5374 38.9404 25.2942C39.7949 26.0511 39.3066 27.5892 37.5488 29.7376C35.7422 31.9349 34.2285 32.7161 33.3496 31.9593Z" fill="white" fill-opacity="0.85"/>
 </g>
</svg>
