<?xml version="1.0" encoding="UTF-8"?>
<!--Generator: Apple Native CoreSVG 326-->
<!DOCTYPE svg
PUBLIC "-//W3C//DTD SVG 1.1//EN"
       "http://www.w3.org/Graphics/SVG/1.1/DTD/svg11.dtd">
<svg version="1.1" xmlns="http://www.w3.org/2000/svg" xmlns:xlink="http://www.w3.org/1999/xlink" viewBox="0 0 90.5762 60.7691">
 <g>
  <rect height="60.7691" opacity="0" width="90.5762" x="0" y="0"/>
  <path d="M31.5918 55.0306C31.5918 56.7884 30.4688 57.7405 28.6133 57.7405L26.1475 57.7405C24.292 57.7405 23.1445 56.7884 23.1445 55.0306L23.1445 35.8729C26.7254 35.5982 29.3725 34.9944 31.5918 34.1637ZM67.0898 35.8729L67.0898 55.0306C67.0898 56.7884 65.9424 57.7405 64.0869 57.7405L61.6211 57.7405C59.7656 57.7405 58.6426 56.7884 58.6426 55.0306L58.6426 34.1637C60.8619 34.9944 63.509 35.5982 67.0898 35.8729Z" fill="white" fill-opacity="0.85"/>
  <path d="M42.9199 15.3089C42.9199 22.1448 38.8184 27.0276 33.5205 29.9573C31.2687 31.2003 28.8175 32.1376 24.9559 32.6107C25.5638 31.1646 25.9033 29.4948 25.9033 27.6136C25.9033 21.3567 20.7978 15.0999 13.7529 13.9925C14.3334 12.837 14.9483 11.878 15.3809 11.3294C19.2139 5.66533 25.2441 2.95537 30.6641 3.02861C37.5244 3.10185 42.9199 7.64287 42.9199 15.3089ZM74.8535 11.3294C75.2861 11.878 75.901 12.837 76.4815 13.9925C69.4365 15.0999 64.3311 21.3567 64.3311 27.6136C64.3311 29.4948 64.6706 31.1646 65.2785 32.6107C61.4169 32.1376 58.9657 31.2003 56.7139 29.9573C51.416 27.0276 47.3145 22.1448 47.3145 15.3089C47.3145 7.64287 52.71 3.10185 59.5703 3.02861C64.9902 2.95537 71.0205 5.66533 74.8535 11.3294ZM34.6191 10.011L30.1514 13.7708C29.541 14.2835 29.4678 15.1624 29.9561 15.7483C30.4688 16.3831 31.3721 16.4319 31.9336 15.9437L36.4746 12.1839C37.085 11.6712 37.1094 10.7923 36.5967 10.2063C36.1328 9.57158 35.2295 9.49834 34.6191 10.011ZM53.6377 10.2063C53.125 10.7923 53.1494 11.6712 53.7598 12.1839L58.3008 15.9437C58.8623 16.4319 59.7656 16.3831 60.2783 15.7483C60.7666 15.1624 60.6934 14.2835 60.083 13.7708L55.6152 10.011C55.0049 9.49834 54.1016 9.57158 53.6377 10.2063Z" fill="white" fill-opacity="0.85"/>
  <path d="M14.0869 36.4759C18.9453 36.4759 22.998 33.4485 22.998 27.6136C22.998 22.2425 18.0176 16.7249 11.499 16.7249C6.12793 16.7249 2.90527 20.9241 2.90527 25.4651C2.90527 32.0081 8.47168 36.4759 14.0869 36.4759ZM12.5977 31.9593C11.7188 32.7161 10.2295 31.9349 8.42285 29.7376C6.64062 27.5892 6.15234 26.0511 7.00684 25.2942C7.91016 24.5374 9.375 25.2942 11.1816 27.4915C12.9395 29.7132 13.4521 31.2269 12.5977 31.9593ZM76.1475 36.4759C81.7627 36.4759 87.3291 32.0081 87.3291 25.4651C87.3291 20.9241 84.1064 16.7249 78.7354 16.7249C72.2168 16.7249 67.2363 22.2425 67.2363 27.6136C67.2363 33.4485 71.2891 36.4759 76.1475 36.4759ZM77.6367 31.9593C76.7822 31.2269 77.2949 29.7132 79.0527 27.4915C80.8594 25.2942 82.3242 24.5374 83.2275 25.2942C84.082 26.0511 83.5938 27.5892 81.8115 29.7376C80.0293 31.9349 78.5156 32.7161 77.6367 31.9593Z" fill="white" fill-opacity="0.85"/>
 </g>
</svg>
