<?xml version="1.0" encoding="UTF-8"?>
<!--Generator: Apple Native CoreSVG 326-->
<!DOCTYPE svg
PUBLIC "-//W3C//DTD SVG 1.1//EN"
       "http://www.w3.org/Graphics/SVG/1.1/DTD/svg11.dtd">
<svg version="1.1" xmlns="http://www.w3.org/2000/svg" xmlns:xlink="http://www.w3.org/1999/xlink" viewBox="0 0 46.6064 65.4541">
 <g>
  <rect height="65.4541" opacity="0" width="46.6064" x="0" y="0"/>
  <path d="M2.46582 44.873C2.46582 49.7314 4.32129 53.1738 7.86133 55.127C9.52148 56.0303 10.4004 57.0312 11.0352 59.0332L12.1338 62.6953C12.6953 64.5508 14.0137 65.4541 15.9424 65.4541L30.127 65.4541C32.1533 65.4541 33.374 64.5752 33.9355 62.6953L35.0586 59.0332C35.6689 57.0312 36.5723 56.0303 38.2324 55.127C41.7725 53.1738 43.6035 49.7314 43.6035 44.873L43.6035 20.6055C43.6035 15.7471 41.7725 12.2803 38.2324 10.3271C36.5723 9.44824 35.6689 8.44727 35.0586 6.44531L33.9355 2.7832C33.4229 0.952148 32.1289 0.0244141 30.127 0.0244141L15.9424 0.0244141C14.0137 0.0244141 12.6953 0.927734 12.1338 2.7832L11.0352 6.44531C10.4248 8.42285 9.5459 9.47266 7.86133 10.3271C4.3457 12.207 2.46582 15.6982 2.46582 20.6055ZM6.4209 44.3115L6.4209 21.167C6.4209 16.1621 9.35059 13.1592 14.2822 13.1592L31.8359 13.1592C36.7432 13.1592 39.6484 16.1621 39.6484 21.167L39.6484 44.3115C39.6484 49.292 36.7432 52.2949 31.8359 52.2949L14.2822 52.2949C9.35059 52.2949 6.4209 49.292 6.4209 44.3115ZM42.8467 30.6152L44.043 30.6152C45.5811 30.6152 46.6064 29.541 46.6064 27.8564L46.6064 23.5352C46.6064 21.8262 45.5811 20.752 44.043 20.752L42.8467 20.752Z" fill="white" fill-opacity="0.85"/>
 </g>
</svg>
