<?xml version="1.0" encoding="UTF-8"?>
<!--Generator: Apple Native CoreSVG 326-->
<!DOCTYPE svg
PUBLIC "-//W3C//DTD SVG 1.1//EN"
       "http://www.w3.org/Graphics/SVG/1.1/DTD/svg11.dtd">
<svg version="1.1" xmlns="http://www.w3.org/2000/svg" xmlns:xlink="http://www.w3.org/1999/xlink" viewBox="0 0 52.1484 69.9951">
 <g>
  <rect height="69.9951" opacity="0" width="52.1484" x="0" y="0"/>
  <path d="M17.0898 63.2568L34.7412 63.2568C35.498 63.2568 36.0596 62.7197 36.0596 61.9141C36.0596 61.1328 35.498 60.5957 34.7412 60.5957L17.0898 60.5957C16.3086 60.5957 15.7715 61.1328 15.7715 61.9141C15.7715 62.7197 16.3086 63.2568 17.0898 63.2568ZM0 61.6943C0 66.748 3.36914 69.9951 8.59375 69.9951L43.2129 69.9951C48.4375 69.9951 51.8066 66.748 51.8066 61.6943L51.8066 8.30078C51.8066 3.24707 48.4375 0 43.2129 0L8.59375 0C3.36914 0 0 3.24707 0 8.30078ZM4.32129 61.0107L4.32129 8.98438C4.32129 6.00586 6.05469 4.32129 9.10645 4.32129L42.6758 4.32129C45.7275 4.32129 47.4609 6.00586 47.4609 8.98438L47.4609 61.0107C47.4609 63.9648 45.7275 65.6494 42.6758 65.6494L9.10645 65.6494C6.05469 65.6494 4.32129 63.9648 4.32129 61.0107Z" fill="white" fill-opacity="0.85"/>
 </g>
</svg>
