<?xml version="1.0" encoding="UTF-8"?>
<!--Generator: Apple Native CoreSVG 326-->
<!DOCTYPE svg
PUBLIC "-//W3C//DTD SVG 1.1//EN"
       "http://www.w3.org/Graphics/SVG/1.1/DTD/svg11.dtd">
<svg version="1.1" xmlns="http://www.w3.org/2000/svg" xmlns:xlink="http://www.w3.org/1999/xlink" viewBox="0 0 39.502 65.6006">
 <g>
  <rect height="65.6006" opacity="0" width="39.502" x="0" y="0"/>
  <path d="M8.3252 65.5518L30.8105 65.5518C35.9131 65.5518 39.1602 62.4268 39.1602 57.4951L39.1602 8.05664C39.1602 3.125 35.9131 0 30.8105 0L8.3252 0C3.22266 0 0 3.125 0 8.05664L0 57.4951C0 62.4268 3.22266 65.5518 8.3252 65.5518ZM8.8623 61.2305C5.88379 61.2305 4.32129 59.7168 4.32129 56.8604L4.32129 8.69141C4.32129 5.83496 5.88379 4.32129 8.8623 4.32129L30.2979 4.32129C33.252 4.32129 34.8145 5.83496 34.8145 8.69141L34.8145 56.8604C34.8145 59.7168 33.252 61.2305 30.2979 61.2305ZM12.9883 58.96L26.1719 58.96C26.9531 58.96 27.4902 58.4229 27.4902 57.6416C27.4902 56.8604 26.9531 56.3232 26.1719 56.3232L12.9883 56.3232C12.2314 56.3232 11.6699 56.8604 11.6699 57.6416C11.6699 58.4229 12.2314 58.96 12.9883 58.96ZM15.8691 10.4492L23.3154 10.4492C24.4385 10.4492 25.3174 9.57031 25.3174 8.42285C25.3174 7.32422 24.4385 6.44531 23.3154 6.44531L15.8691 6.44531C14.7217 6.44531 13.8428 7.32422 13.8428 8.42285C13.8428 9.57031 14.7217 10.4492 15.8691 10.4492Z" fill="white" fill-opacity="0.85"/>
 </g>
</svg>
