<?xml version="1.0" encoding="UTF-8"?>
<!--Generator: Apple Native CoreSVG 326-->
<!DOCTYPE svg
PUBLIC "-//W3C//DTD SVG 1.1//EN"
       "http://www.w3.org/Graphics/SVG/1.1/DTD/svg11.dtd">
<svg version="1.1" xmlns="http://www.w3.org/2000/svg" xmlns:xlink="http://www.w3.org/1999/xlink" viewBox="0 0 89.5508 50.2686">
 <g>
  <rect height="50.2686" opacity="0" width="89.5508" x="0" y="0"/>
  <path d="M35.498 4.37012L36.3037 4.37012C36.7676 4.37012 37.0117 4.61426 37.0117 5.07812L37.0117 5.44434C37.0117 6.66504 37.8174 7.49512 39.0625 7.49512L50.2197 7.49512C51.4404 7.49512 52.2217 6.66504 52.2217 5.44434L52.2217 5.07812C52.2217 4.61426 52.4658 4.37012 52.9541 4.37012L53.7598 4.37012L53.7598 2.17285L35.498 2.17285ZM0 47.0215C0 48.8281 1.41602 50.2686 3.19824 50.2686L86.0107 50.2686C87.793 50.2686 89.209 48.8281 89.209 47.0215C89.209 45.2148 87.793 43.7744 86.0107 43.7744L79.1016 43.7744L79.1016 6.56738C79.1016 2.27051 76.8311 0.0488281 72.5342 0.0488281L16.6748 0.0488281C12.5732 0.0488281 10.1074 2.27051 10.1074 6.56738L10.1074 43.7744L3.19824 43.7744C1.41602 43.7744 0 45.2148 0 47.0215ZM14.4287 43.7744L14.4287 7.71484C14.4287 5.46875 15.5518 4.37012 17.7734 4.37012L71.4355 4.37012C73.6572 4.37012 74.7803 5.46875 74.7803 7.71484L74.7803 43.7744Z" fill="white" fill-opacity="0.85"/>
 </g>
</svg>
