<?xml version="1.0" encoding="UTF-8"?>
<!--Generator: Apple Native CoreSVG 326-->
<!DOCTYPE svg
PUBLIC "-//W3C//DTD SVG 1.1//EN"
       "http://www.w3.org/Graphics/SVG/1.1/DTD/svg11.dtd">
<svg version="1.1" xmlns="http://www.w3.org/2000/svg" xmlns:xlink="http://www.w3.org/1999/xlink" viewBox="0 0 62.9395 63.1592">
 <g>
  <rect height="63.1592" opacity="0" width="62.9395" x="0" y="0"/>
  <path d="M49.1211 42.749C31.4941 42.749 20.6543 32.1533 20.6543 15.0879C20.6543 10.3271 21.5576 6.17676 22.7783 3.71094C23.1689 2.88086 23.2666 2.46582 23.2666 1.92871C23.2666 1.02539 22.4365 0 21.2891 0C21.0449 0 20.4834 0.0732422 19.7021 0.366211C8.20312 4.98047 0 16.9434 0 30.2734C0 48.3398 14.6729 63.0127 32.7148 63.0127C45.3613 63.0127 56.7871 55.835 62.2314 44.3115C62.5732 43.5791 62.5977 42.9932 62.5977 42.7002C62.5977 41.5283 61.6699 40.7715 60.791 40.7715C60.3271 40.7715 59.9854 40.8203 59.3506 41.0645C56.9336 42.0654 52.9053 42.749 49.1211 42.749ZM4.22363 30.1025C4.22363 19.9219 9.69238 10.3516 18.2861 5.24902C17.2119 8.27637 16.626 11.7676 16.626 15.4297C16.626 34.9854 28.5645 46.7041 48.5596 46.7041C51.8799 46.7041 54.834 46.2891 57.4463 45.3857C52.5635 53.7109 43.2373 58.8135 32.8857 58.8135C16.6016 58.8135 4.22363 46.4355 4.22363 30.1025Z" fill="white" fill-opacity="0.85"/>
 </g>
</svg>
