<?xml version="1.0" encoding="UTF-8"?>
<!--Generator: Apple Native CoreSVG 326-->
<!DOCTYPE svg
PUBLIC "-//W3C//DTD SVG 1.1//EN"
       "http://www.w3.org/Graphics/SVG/1.1/DTD/svg11.dtd">
<svg version="1.1" xmlns="http://www.w3.org/2000/svg" xmlns:xlink="http://www.w3.org/1999/xlink" viewBox="0 0 68.1396 67.9932">
 <g>
  <rect height="67.9932" opacity="0" width="68.1396" x="0" y="0"/>
  <path d="M33.8867 11.7432C35.1807 11.7432 36.2061 10.6934 36.2061 9.42383L36.2061 2.31934C36.2061 1.0498 35.1807 0 33.8867 0C32.6172 0 31.5918 1.0498 31.5918 2.31934L31.5918 9.42383C31.5918 10.6934 32.6172 11.7432 33.8867 11.7432ZM49.585 18.2861C50.4883 19.165 51.9531 19.2139 52.8809 18.2861L57.9102 13.2568C58.8135 12.3535 58.7891 10.8643 57.9102 9.96094C57.0068 9.08203 55.542 9.05762 54.6387 9.96094L49.585 15.0146C48.6816 15.918 48.7061 17.3828 49.585 18.2861ZM56.0791 33.9844C56.0791 35.2539 57.1289 36.2793 58.3984 36.2793L65.4785 36.2793C66.748 36.2793 67.7979 35.2539 67.7979 33.9844C67.7979 32.7148 66.748 31.665 65.4785 31.665L58.3984 31.665C57.1289 31.665 56.0791 32.7148 56.0791 33.9844ZM49.585 49.6826C48.7061 50.5859 48.6816 52.0752 49.585 52.9541L54.6387 58.0078C55.542 58.9111 57.0068 58.8623 57.9102 57.9834C58.7891 57.0801 58.8135 55.6152 57.9102 54.7363L52.8564 49.6826C51.9531 48.8037 50.4883 48.8037 49.585 49.6826ZM33.8867 56.2256C32.6172 56.2256 31.5918 57.251 31.5918 58.5205L31.5918 65.625C31.5918 66.9189 32.6172 67.9443 33.8867 67.9443C35.1807 67.9443 36.2061 66.9189 36.2061 65.625L36.2061 58.5205C36.2061 57.251 35.1807 56.2256 33.8867 56.2256ZM18.2129 49.6826C17.3096 48.8037 15.8203 48.8037 14.917 49.6826L9.8877 54.7119C8.98438 55.5908 9.00879 57.0557 9.86328 57.959C10.7666 58.8379 12.2559 58.8867 13.1348 57.9834L18.1885 52.9541C19.0674 52.0752 19.0674 50.5859 18.2129 49.6826ZM11.6943 33.9844C11.6943 32.7148 10.6689 31.665 9.39941 31.665L2.31934 31.665C1.0498 31.665 0 32.7148 0 33.9844C0 35.2539 1.0498 36.2793 2.31934 36.2793L9.39941 36.2793C10.6689 36.2793 11.6943 35.2539 11.6943 33.9844ZM18.1885 18.2861C19.0674 17.4072 19.0674 15.8936 18.2129 15.0146L13.1592 9.96094C12.3047 9.10645 10.8154 9.08203 9.91211 9.96094C9.0332 10.8643 9.00879 12.3535 9.8877 13.2324L14.917 18.2861C15.8203 19.1895 17.2852 19.165 18.1885 18.2861Z" fill="white" fill-opacity="0.85"/>
  <path d="M33.8867 49.6826C42.5537 49.6826 49.6094 42.6514 49.6094 33.9844C49.6094 25.3174 42.5537 18.2617 33.8867 18.2617C25.2197 18.2617 18.1885 25.3174 18.1885 33.9844C18.1885 42.6514 25.2197 49.6826 33.8867 49.6826ZM33.8867 45.5811C27.4658 45.5811 22.29 40.4053 22.29 33.9844C22.29 27.5391 27.4658 22.3633 33.8867 22.3633C40.332 22.3633 45.5078 27.5391 45.5078 33.9844C45.5078 40.4053 40.332 45.5811 33.8867 45.5811Z" fill="white" fill-opacity="0.85"/>
 </g>
</svg>
